# This file uses centimeters as units for non-parametric coordinates.

g default
v -1.440575 0.752482 0.882532
v 1.440575 0.752482 0.882532
v -1.440575 2.410821 0.882532
v 1.440575 2.410821 0.882532
v -1.440575 2.410821 -0.625048
v 1.440575 2.410821 -0.625048
v -1.440575 0.752482 -0.625048
v 1.440575 0.752482 -0.625048
v -1.819550 2.628948 0.128742
v 1.819550 1.581651 -0.823346
v 0.000000 0.534355 -0.823346
v -1.819550 1.581651 -0.823346
v 1.819550 0.534355 0.128742
v -1.819550 0.534355 0.128742
v 0.000000 0.534355 1.080830
v 1.819550 1.581651 1.080830
v 0.000000 2.628948 1.080830
v -1.819550 1.581651 1.080830
v 1.819550 2.628948 0.128742
v 0.000000 2.628948 -0.823346
v 0.000000 1.581651 1.429029
v 0.000000 3.011968 0.128742
v 0.000000 1.581651 -1.171546
v 0.000000 0.151335 0.128742
v 2.484993 1.581651 0.128742
v -2.484993 1.581651 0.128742
v -1.694313 2.073499 -0.757818
v 1.694313 2.073499 -0.757818
v 0.992035 1.581651 -1.084174
v 1.694313 1.089803 -0.757818
v 0.854523 0.606436 -0.757818
v 0.000000 1.010656 -1.084174
v -0.854523 0.606436 -0.757818
v -1.694313 1.089803 -0.757818
v 0.000000 0.247443 -0.390345
v -0.992035 0.247443 0.128742
v -1.694313 0.606436 -0.318393
v 1.694313 0.606436 -0.318393
v 0.992035 0.247443 0.128742
v 1.694313 0.606436 0.575876
v 0.000000 0.247443 0.647829
v -1.694313 0.606436 0.575876
v 2.318020 1.010656 0.128742
v 2.318020 1.581651 0.647829
v 2.318020 1.581651 -0.390345
v 2.318020 2.152647 0.128742
v -2.318016 1.010656 0.128742
v -2.318016 1.581651 -0.390345
v -2.318016 1.581651 0.647829
v -2.318016 2.152647 0.128742
v -0.854523 0.606436 1.015301
v 0.000000 1.010656 1.341658
v -0.992035 1.581651 1.341658
v -1.694313 1.089803 1.015301
v 0.854523 0.606436 1.015301
v 1.694313 1.089803 1.015301
v 0.992035 1.581651 1.341658
v 1.694313 2.073499 1.015301
v 0.854523 2.556868 1.015301
v 0.000000 2.152647 1.341658
v -0.854523 2.556868 1.015301
v -1.694313 2.073499 1.015301
v 0.000000 2.915859 0.647829
v -0.992035 2.915859 0.128742
v -1.694313 2.556868 0.575876
v 1.694313 2.556868 0.575876
v 0.992035 2.915859 0.128742
v 1.694313 2.556868 -0.318393
v 0.854523 2.556868 -0.757818
v 0.000000 2.915859 -0.390345
v -0.854523 2.556867 -0.757818
v -1.694313 2.556867 -0.318393
v 0.000000 2.152647 -1.084174
v -0.992035 1.581651 -1.084174
v -0.923279 1.050230 1.259426
v 0.923279 1.050230 1.259426
v 0.923279 2.113074 1.259426
v -0.923279 2.113074 1.259426
v -0.923279 2.825405 0.611853
v 0.923279 2.825405 0.611853
v 0.923279 2.825405 -0.354368
v -0.923279 2.825405 -0.354368
v -0.923279 2.113074 -1.001943
v 0.923279 2.113074 -1.001943
v 0.923279 1.050230 -1.001943
v -0.923279 1.050230 -1.001943
v -0.923279 0.337898 -0.354368
v 0.923279 0.337898 -0.354368
v 0.923279 0.337898 0.611853
v -0.923279 0.337898 0.611853
v 2.160870 1.050230 0.611853
v 2.160870 1.050230 -0.354368
v 2.160870 2.113074 -0.354368
v 2.160870 2.113074 0.611853
v -2.160866 1.050230 -0.354368
v -2.160866 1.050230 0.611853
v -2.160866 2.113074 0.611853
v -2.160866 2.113074 -0.354368
vt 0.236257 0.093191
vt 0.286489 0.133069
vt 0.243441 0.163460
vt 0.191792 0.103369
vt 0.345717 0.198900
vt 0.302349 0.232762
vt 0.255683 0.269198
vt 0.196652 0.193595
vt 0.145458 0.128028
vt 0.395219 0.272325
vt 0.355296 0.306718
vt 0.421725 0.330729
vt 0.401068 0.371398
vt 0.365908 0.410368
vt 0.314714 0.344801
vt 0.267926 0.374936
vt 0.209018 0.305634
vt 0.319575 0.435028
vt 0.275111 0.445206
vt 0.224878 0.405327
vt 0.165650 0.339497
vt 0.156070 0.231679
vt 0.110298 0.166999
vt 0.116147 0.266072
vt 0.089641 0.207668
vt 0.068602 0.283116
vt 0.048216 0.192744
vt 0.122726 0.373012
vt 0.077951 0.407973
vt 0.017774 0.294516
vt 0.000000 0.181996
vt 0.196813 0.447320
vt 0.279544 0.489013
vt 0.278278 0.538396
vt 0.173428 0.493866
vt 0.566321 0.407158
vt 0.506736 0.293390
vt 0.557623 0.282256
vt 0.611278 0.372432
vt 0.489547 0.180781
vt 0.537707 0.191779
vt 0.579054 0.206919
vt 0.605256 0.265460
vt 0.654375 0.339141
vt 0.765967 0.538624
vt 0.661349 0.493548
vt 0.684977 0.447125
vt 0.767490 0.489248
vt 0.713260 0.405279
vt 0.763285 0.445418
vt 0.756466 0.375112
vt 0.807802 0.435472
vt 0.697919 0.305505
vt 0.744774 0.269312
vt 0.803411 0.345221
vt 0.854263 0.411053
vt 0.645357 0.231275
vt 0.599922 0.166358
vt 0.635284 0.127571
vt 0.686137 0.193403
vt 0.733081 0.163512
vt 0.791628 0.233119
vt 0.681745 0.103153
vt 0.726261 0.093206
vt 0.776286 0.133345
vt 0.835172 0.199483
vt 0.844190 0.307349
vt 0.889625 0.372266
vt 0.884292 0.273163
vt 0.910494 0.331705
vt 0.931924 0.256367
vt 0.951840 0.346844
vt 0.878268 0.166191
vt 0.923225 0.131463
vt 0.982811 0.245231
vt 1.000000 0.357842
vt 0.804569 0.091499
vt 0.722056 0.049376
vt 0.723579 0.000000
vt 0.828196 0.045075
vt 0.433417 0.130426
vt 0.493592 0.243883
vt 0.442764 0.255282
vt 0.388641 0.165386
vt 0.511366 0.356402
vt 0.463150 0.345654
vt 0.233090 0.000000
vt 0.337941 0.044531
vt 0.314554 0.091077
vt 0.231824 0.049383
vt 0.444741 0.414871
vt 0.488289 0.443824
vt 0.437952 0.502638
vt 0.405276 0.460788
vt 0.650436 0.050077
vt 0.633164 0.000717
vt 0.596179 0.076948
vt 0.563720 0.034928
vt 0.556476 0.122658
vt 0.513079 0.093479
vt 0.351159 0.487940
vt 0.368687 0.537209
vt 0.933072 0.415965
vt 0.976469 0.445144
vt 0.925826 0.503696
vt 0.893368 0.461676
vt 0.160208 0.050457
vt 0.142680 0.001187
vt 0.106091 0.077609
vt 0.073414 0.035758
vt 0.066625 0.123526
vt 0.023077 0.094573
vt 0.839110 0.488547
vt 0.856382 0.537907
vn -0.350191 -0.629588 0.693531
vn -0.176122 -0.662509 0.728055
vn -0.182564 -0.316878 0.930730
vn -0.435258 -0.354772 0.827458
vn 0.000000 -0.673798 0.738916
vn 0.000000 -0.317215 0.948354
vn -0.000000 0.000000 1.000000
vn -0.194771 0.000000 0.980849
vn -0.480773 0.000000 0.876845
vn 0.176122 -0.662509 0.728055
vn 0.182564 -0.316878 0.930730
vn 0.350191 -0.629588 0.693531
vn 0.435257 -0.354772 0.827458
vn 0.480772 -0.000000 0.876846
vn 0.194771 0.000000 0.980849
vn 0.182564 0.316878 0.930730
vn 0.000000 0.317215 0.948354
vn 0.435257 0.354772 0.827459
vn 0.350191 0.629587 0.693532
vn 0.176122 0.662509 0.728054
vn 0.000000 0.673798 0.738916
vn -0.182564 0.316878 0.930730
vn -0.435258 0.354772 0.827458
vn -0.176122 0.662509 0.728054
vn -0.350191 0.629587 0.693531
vn -0.195101 0.907262 0.372574
vn -0.456558 0.790317 0.408601
vn 0.000000 0.927564 0.373665
vn 0.000000 1.000000 -0.000000
vn -0.213546 0.976933 -0.000000
vn -0.516146 0.856500 -0.000000
vn 0.195101 0.907262 0.372574
vn 0.456557 0.790317 0.408601
vn 0.516145 0.856501 -0.000000
vn 0.213546 0.976933 -0.000000
vn 0.195101 0.907262 -0.372573
vn -0.000000 0.927564 -0.373664
vn 0.456557 0.790317 -0.408601
vn 0.350191 0.629588 -0.693531
vn 0.176121 0.662509 -0.728054
vn -0.000000 0.673799 -0.738915
vn -0.195101 0.907262 -0.372573
vn -0.456558 0.790317 -0.408601
vn -0.176122 0.662509 -0.728054
vn -0.350192 0.629589 -0.693530
vn -0.182564 0.316877 -0.930730
vn -0.435259 0.354772 -0.827458
vn -0.000000 0.317215 -0.948354
vn -0.000000 -0.000000 -1.000000
vn -0.194771 0.000000 -0.980849
vn -0.480773 0.000000 -0.876845
vn 0.182564 0.316877 -0.930730
vn 0.435258 0.354772 -0.827458
vn 0.480772 0.000000 -0.876846
vn 0.194770 0.000000 -0.980849
vn 0.182564 -0.316877 -0.930730
vn -0.000000 -0.317215 -0.948354
vn 0.435258 -0.354772 -0.827458
vn 0.350191 -0.629588 -0.693531
vn 0.176122 -0.662509 -0.728054
vn 0.000000 -0.673799 -0.738915
vn -0.182564 -0.316878 -0.930731
vn -0.435259 -0.354772 -0.827458
vn -0.176122 -0.662509 -0.728054
vn -0.350192 -0.629588 -0.693530
vn -0.195102 -0.907262 -0.372574
vn -0.456558 -0.790316 -0.408601
vn -0.000000 -0.927564 -0.373664
vn 0.000000 -1.000000 0.000000
vn -0.213546 -0.976933 0.000000
vn -0.516147 -0.856500 -0.000000
vn 0.195102 -0.907262 -0.372574
vn 0.456557 -0.790317 -0.408601
vn 0.516145 -0.856501 0.000000
vn 0.213546 -0.976933 0.000000
vn 0.195102 -0.907262 0.372574
vn 0.000000 -0.927564 0.373665
vn 0.456557 -0.790317 0.408601
vn -0.195102 -0.907262 0.372574
vn -0.456558 -0.790316 0.408601
vn 0.726501 -0.462533 0.508192
vn 0.852283 -0.523081 -0.000000
vn 1.000000 0.000000 -0.000000
vn 0.829539 0.000000 0.558449
vn 0.726502 -0.462533 -0.508192
vn 0.829539 0.000000 -0.558448
vn 0.726502 0.462533 -0.508192
vn 0.852283 0.523081 -0.000000
vn 0.726501 0.462532 0.508192
vn -0.726503 -0.462532 -0.508191
vn -0.852283 -0.523080 0.000000
vn -1.000000 0.000000 0.000000
vn -0.829540 -0.000000 -0.558447
vn -0.726502 -0.462532 0.508192
vn -0.829540 0.000000 0.558448
vn -0.726502 0.462532 0.508192
vn -0.852284 0.523080 -0.000000
vn -0.726503 0.462532 -0.508191
s 1
g pCube14
f 1/1/1 51/2/2 75/3/3 54/4/4
f 51/2/2 15/5/5 52/6/6 75/3/3
f 75/3/3 52/6/6 21/7/7 53/8/8
f 54/4/4 75/3/3 53/8/8 18/9/9
f 15/5/5 55/10/10 76/11/11 52/6/6
f 55/10/10 2/12/12 56/13/13 76/11/11
f 76/11/11 56/13/13 16/14/14 57/15/15
f 52/6/6 76/11/11 57/15/15 21/7/7
f 21/7/7 57/15/15 77/16/16 60/17/17
f 57/15/15 16/14/14 58/18/18 77/16/16
f 77/16/16 58/18/18 4/19/19 59/20/20
f 60/17/17 77/16/16 59/20/20 17/21/21
f 18/9/9 53/8/8 78/22/22 62/23/23
f 53/8/8 21/7/7 60/17/17 78/22/22
f 78/22/22 60/17/17 17/21/21 61/24/24
f 62/23/23 78/22/22 61/24/24 3/25/25
f 3/25/25 61/24/24 79/26/26 65/27/27
f 61/24/24 17/21/21 63/28/28 79/26/26
f 79/26/26 63/28/28 22/29/29 64/30/30
f 65/27/27 79/26/26 64/30/30 9/31/31
f 17/21/21 59/20/20 80/32/32 63/28/28
f 59/20/20 4/19/19 66/33/33 80/32/32
f 80/32/32 66/33/33 19/34/34 67/35/35
f 63/28/28 80/32/32 67/35/35 22/29/29
f 22/36/29 67/37/35 81/38/36 70/39/37
f 67/37/35 19/40/34 68/41/38 81/38/36
f 81/38/36 68/41/38 6/42/39 69/43/40
f 70/39/37 81/38/36 69/43/40 20/44/41
f 9/45/31 64/46/30 82/47/42 72/48/43
f 64/46/30 22/36/29 70/39/37 82/47/42
f 82/47/42 70/39/37 20/44/41 71/49/44
f 72/48/43 82/47/42 71/49/44 5/50/45
f 5/50/45 71/49/44 83/51/46 27/52/47
f 71/49/44 20/44/41 73/53/48 83/51/46
f 83/51/46 73/53/48 23/54/49 74/55/50
f 27/52/47 83/51/46 74/55/50 12/56/51
f 20/44/41 69/43/40 84/57/52 73/53/48
f 69/43/40 6/42/39 28/58/53 84/57/52
f 84/57/52 28/58/53 10/59/54 29/60/55
f 73/53/48 84/57/52 29/60/55 23/54/49
f 23/54/49 29/60/55 85/61/56 32/62/57
f 29/60/55 10/59/54 30/63/58 85/61/56
f 85/61/56 30/63/58 8/64/59 31/65/60
f 32/62/57 85/61/56 31/65/60 11/66/61
f 12/56/51 74/55/50 86/67/62 34/68/63
f 74/55/50 23/54/49 32/62/57 86/67/62
f 86/67/62 32/62/57 11/66/61 33/69/64
f 34/68/63 86/67/62 33/69/64 7/70/65
f 7/70/65 33/69/64 87/71/66 37/72/67
f 33/69/64 11/66/61 35/73/68 87/71/66
f 87/71/66 35/73/68 24/74/69 36/75/70
f 37/72/67 87/71/66 36/75/70 14/76/71
f 11/66/61 31/65/60 88/77/72 35/73/68
f 31/65/60 8/64/59 38/78/73 88/77/72
f 88/77/72 38/78/73 13/79/74 39/80/75
f 35/73/68 88/77/72 39/80/75 24/74/69
f 24/81/69 39/82/75 89/83/76 41/84/77
f 39/82/75 13/85/74 40/86/78 89/83/76
f 89/83/76 40/86/78 2/12/12 55/10/10
f 41/84/77 89/83/76 55/10/10 15/5/5
f 14/87/71 36/88/70 90/89/79 42/90/80
f 36/88/70 24/81/69 41/84/77 90/89/79
f 90/89/79 41/84/77 15/5/5 51/2/2
f 42/90/80 90/89/79 51/2/2 1/1/1
f 2/12/12 40/86/78 91/91/81 56/13/13
f 40/86/78 13/85/74 43/92/82 91/91/81
f 91/91/81 43/92/82 25/93/83 44/94/84
f 56/13/13 91/91/81 44/94/84 16/14/14
f 13/79/74 38/78/73 92/95/85 43/96/82
f 38/78/73 8/64/59 30/63/58 92/95/85
f 92/95/85 30/63/58 10/59/54 45/97/86
f 43/96/82 92/95/85 45/97/86 25/98/83
f 25/98/83 45/97/86 93/99/87 46/100/88
f 45/97/86 10/59/54 28/58/53 93/99/87
f 93/99/87 28/58/53 6/42/39 68/41/38
f 46/100/88 93/99/87 68/41/38 19/40/34
f 16/14/14 44/94/84 94/101/89 58/18/18
f 44/94/84 25/93/83 46/102/88 94/101/89
f 94/101/89 46/102/88 19/34/34 66/33/33
f 58/18/18 94/101/89 66/33/33 4/19/19
f 7/70/65 37/72/67 95/103/90 34/68/63
f 37/72/67 14/76/71 47/104/91 95/103/90
f 95/103/90 47/104/91 26/105/92 48/106/93
f 34/68/63 95/103/90 48/106/93 12/56/51
f 14/87/71 42/90/80 96/107/94 47/108/91
f 42/90/80 1/1/1 54/4/4 96/107/94
f 96/107/94 54/4/4 18/9/9 49/109/95
f 47/108/91 96/107/94 49/109/95 26/110/92
f 26/110/92 49/109/95 97/111/96 50/112/97
f 49/109/95 18/9/9 62/23/23 97/111/96
f 97/111/96 62/23/23 3/25/25 65/27/27
f 50/112/97 97/111/96 65/27/27 9/31/31
f 12/56/51 48/106/93 98/113/98 27/52/47
f 48/106/93 26/105/92 50/114/97 98/113/98
f 98/113/98 50/114/97 9/45/31 72/48/43
f 27/52/47 98/113/98 72/48/43 5/50/45
